<?xml version="1.0" standalone="no"?>
<!DOCTYPE svg PUBLIC "-//W3C//DTD SVG 20010904//EN"
 "http://www.w3.org/TR/2001/REC-SVG-20010904/DTD/svg10.dtd">
<svg version="1.0" xmlns="http://www.w3.org/2000/svg"
 width="192.000000pt" height="192.000000pt" viewBox="0 0 192.000000 192.000000"
 preserveAspectRatio="xMidYMid meet">
<metadata>
Created by potrace 1.10, written by Peter Selinger 2001-2011
</metadata>
<g transform="translate(0.000000,192.000000) scale(0.100000,-0.100000)"
fill="#000000" stroke="none">
<path d="M697 1886 c-57 -24 -262 -141 -387 -222 -73 -46 -120 -94 -150 -154
-11 -22 -38 -67 -59 -100 -94 -145 -107 -221 -94 -556 l8 -212 48 -58 c26 -33
60 -79 75 -104 44 -73 111 -135 162 -149 25 -7 52 -17 60 -22 84 -52 112 -73
178 -132 85 -75 220 -148 310 -166 102 -21 381 -8 522 25 36 8 111 37 166 64
109 53 164 102 242 220 104 156 139 283 127 454 -9 128 -9 173 0 274 5 47 4
77 -3 84 -7 7 -9 -2 -5 -30 13 -95 -36 -190 -121 -234 -55 -29 -166 -31 -216
-4 -49 26 -88 64 -113 111 -18 33 -22 57 -22 130 0 77 4 96 25 135 29 51 100
104 155 114 49 9 136 -10 179 -39 36 -24 51 -20 20 6 -30 25 -88 42 -156 46
-59 4 -73 1 -119 -23 -28 -16 -62 -43 -76 -61 -52 -67 -67 -183 -37 -282 30
-101 140 -181 250 -181 48 0 124 28 166 62 l38 30 11 -29 c18 -47 6 -286 -19
-363 -40 -123 -182 -319 -271 -374 -63 -40 -204 -94 -271 -104 -128 -21 -305
-35 -374 -29 -144 11 -270 68 -395 178 l-53 47 41 7 c66 11 58 25 -11 19 -55
-5 -67 -3 -98 18 -103 70 -105 190 -5 249 19 12 35 25 35 29 0 18 -45 -5 -80
-42 -21 -21 -40 -38 -43 -38 -13 0 -40 156 -44 262 -13 280 91 514 296 670 83
63 222 131 326 159 70 19 94 21 198 15 65 -4 144 -11 174 -16 61 -10 169 -57
220 -96 22 -16 31 -20 27 -9 -4 8 -1 22 6 30 26 32 -23 165 -82 222 -18 17
-71 57 -118 88 -127 84 -218 105 -445 105 -124 0 -147 -3 -198 -24z m403 -11
c36 -8 74 -17 84 -20 29 -7 114 -53 189 -103 62 -41 73 -53 103 -116 19 -39
34 -85 34 -103 l0 -32 -44 25 c-105 59 -279 91 -445 82 -209 -12 -456 -149
-592 -329 -57 -74 -71 -100 -108 -195 -65 -168 -68 -451 -6 -604 7 -19 16 -59
18 -88 4 -52 4 -52 -17 -37 -12 8 -28 18 -36 21 -8 3 -25 10 -38 15 -12 5 -35
30 -50 56 -15 25 -50 74 -78 108 -78 94 -80 100 -89 285 -15 292 -13 324 25
419 18 46 51 111 74 145 23 34 50 78 61 100 24 46 107 122 190 172 217 132
326 191 395 215 35 12 252 2 330 -16z"/>
<path d="M1432 1428 c8 -25 56 -40 104 -32 27 4 43 11 41 18 -3 6 -11 9 -18 7
-42 -12 -70 -11 -99 4 -24 12 -31 13 -28 3z"/>
<path d="M1034 1396 c-8 -21 -73 -62 -129 -80 -61 -21 -85 -34 -85 -47 0 -6 8
-6 21 2 12 6 46 19 77 30 30 10 70 30 88 44 37 28 62 65 44 65 -6 0 -13 -6
-16 -14z"/>
<path d="M871 1233 c-69 -36 -135 -109 -157 -175 -33 -101 -7 -238 59 -310 50
-53 103 -73 202 -73 79 0 97 4 149 29 68 33 123 85 151 141 15 31 20 61 20
130 0 80 -3 95 -27 135 -60 102 -149 150 -276 150 -55 0 -78 -5 -121 -27z
m254 -17 c100 -47 155 -134 155 -246 -1 -114 -48 -188 -155 -242 -158 -81
-340 -26 -389 117 -24 72 -21 169 8 230 25 55 98 128 149 150 53 23 173 19
232 -9z"/>
<path d="M872 968 c-16 -16 -15 -38 1 -38 19 0 36 20 30 36 -6 17 -15 18 -31
2z"/>
<path d="M1764 1145 c-4 -9 -3 -19 0 -23 9 -8 42 12 39 24 -4 16 -33 16 -39
-1z"/>
<path d="M1480 821 c0 -5 14 -14 31 -21 44 -18 65 -54 51 -85 -15 -33 -54 -41
-104 -21 -23 9 -43 14 -46 12 -20 -20 83 -51 121 -37 28 11 57 47 57 72 0 10
-19 34 -42 53 -40 35 -68 46 -68 27z"/>
<path d="M1478 554 c-4 -3 3 -32 14 -64 22 -66 21 -135 -2 -135 -8 0 -20 10
-26 23 -19 37 -28 26 -25 -32 1 -34 -2 -57 -10 -62 -16 -9 -48 30 -56 68 -3
15 -12 28 -19 28 -20 0 8 -66 42 -100 30 -31 57 -19 62 29 3 24 8 31 21 29 52
-9 65 57 30 160 -22 65 -22 66 -31 56z"/>
</g>
</svg>
